<!-- icon666.com - MILLIONS vector ICONS FREE --><svg id="Line" width="10px" height="25" role="img" fill="white" viewBox="0 0 64 64" xmlns="http://www.w3.org/2000/svg"><path d="m22.25 3.50043h-7.5a4.50491 4.50491 0 0 0 -4.5 4.5v48a4.50492 4.50492 0 0 0 4.5 4.5h7.5a4.50492 4.50492 0 0 0 4.5-4.5v-48a4.50491 4.50491 0 0 0 -4.5-4.5zm1.5 52.5a1.50164 1.50164 0 0 1 -1.5 1.5h-7.5a1.50164 1.50164 0 0 1 -1.5-1.5v-48a1.50164 1.50164 0 0 1 1.5-1.5h7.5a1.50164 1.50164 0 0 1 1.5 1.5z"/><path d="m49.25 3.50043h-7.5a4.50491 4.50491 0 0 0 -4.5 4.5v48a4.50492 4.50492 0 0 0 4.5 4.5h7.5a4.50492 4.50492 0 0 0 4.5-4.5v-48a4.50491 4.50491 0 0 0 -4.5-4.5zm1.5 52.5a1.50164 1.50164 0 0 1 -1.5 1.5h-7.5a1.50164 1.50164 0 0 1 -1.5-1.5v-48a1.50164 1.50164 0 0 1 1.5-1.5h7.5a1.50164 1.50164 0 0 1 1.5 1.5z"/></svg>